<svg viewBox="0 0 24 24" xmlns="http://www.w3.org/2000/svg" fill-rule="evenodd" clip-rule="evenodd" stroke-linejoin="round" stroke-miterlimit="2"><path d="M15.67 5.463h5.989v1.453H15.67V5.463zm-6 5.749c1.323-.633 2.017-1.597 2.017-3.086 0-2.945-2.192-3.66-4.723-3.66H0v14.782h7.16c2.683 0 5.202-1.291 5.202-4.293 0-1.855-.877-3.226-2.693-3.743zM3.247 6.988h3.047c1.174 0 2.227.328 2.227 1.69 0 1.255-.819 1.76-1.981 1.76H3.248v-3.45zm3.468 9.75H3.245v-4.07h3.54c1.428 0 2.332.597 2.332 2.11 0 1.49-1.078 1.96-2.401 1.96zM24 14.052c0-3.167-1.852-5.806-5.202-5.806-3.257 0-5.473 2.453-5.473 5.668 0 3.331 2.098 5.62 5.473 5.62 2.554 0 4.208-1.15 5.004-3.603H21.21c-.281.916-1.428 1.396-2.32 1.396-1.723 0-2.624-1.009-2.624-2.722h7.711c.01-.178.022-.365.022-.553zm-7.733-1.303c.093-1.408 1.032-2.288 2.438-2.288 1.476 0 2.215.868 2.345 2.288h-4.783z" fill-rule="nonzero"/></svg>
