<svg viewBox="0 0 24 24" xmlns="http://www.w3.org/2000/svg" fill-rule="evenodd" clip-rule="evenodd" stroke-linejoin="round" stroke-miterlimit="2"><path d="M12.002.317C5.37.315 0 5.683 0 12.308c0 5.24 3.36 9.693 8.039 11.33.63.157.533-.29.533-.596v-2.078c-3.638.426-3.786-1.982-4.03-2.384-.493-.842-1.66-1.056-1.31-1.459.827-.426 1.672.108 2.65 1.553.708 1.048 2.09.871 2.789.697.153-.63.48-1.193.93-1.63-3.77-.676-5.34-2.977-5.34-5.712 0-1.326.437-2.546 1.295-3.53-.547-1.623.05-3.012.13-3.218 1.559-.14 3.178 1.115 3.304 1.214.885-.239 1.896-.365 3.027-.365 1.137 0 2.151.132 3.044.374.302-.231 1.804-1.309 3.252-1.178.077.207.663 1.564.148 3.164.868.987 1.31 2.218 1.31 3.548 0 2.74-1.581 5.043-5.362 5.708a3.418 3.418 0 011.021 2.44v3.016c.022.241 0 .48.403.48 4.749-1.6 8.167-6.086 8.167-11.37C24 5.682 18.626.316 12.002.316z" fill-rule="nonzero"/></svg>
