<svg viewBox="0 0 24 24" xmlns="http://www.w3.org/2000/svg" fill-rule="evenodd" clip-rule="evenodd" stroke-linejoin="round" stroke-miterlimit="2"><path d="M11.997 5.843A6.148 6.148 0 005.84 12a6.148 6.148 0 006.157 6.157A6.148 6.148 0 0018.154 12a6.148 6.148 0 00-6.157-6.157zm0 10.159A4.01 4.01 0 017.996 12a4.01 4.01 0 014-4.002A4.01 4.01 0 0116 12a4.01 4.01 0 01-4.002 4.002zm6.409-11.846c-.795 0-1.438.642-1.438 1.438 0 .795.643 1.438 1.438 1.438a1.434 1.434 0 001.329-1.989 1.43 1.43 0 00-1.329-.887zM23.999 12c0-1.657.015-3.299-.078-4.953-.093-1.921-.531-3.626-1.937-5.032C20.576.608 18.874.172 16.954.08 15.296-.014 13.654 0 12 0c-1.658 0-3.3-.014-4.953.08C5.125.172 3.42.61 2.015 2.015.607 3.423.172 5.125.079 7.047-.014 8.704.001 10.346.001 12c0 1.654-.015 3.299.078 4.953.093 1.921.531 3.626 1.936 5.032 1.408 1.407 3.11 1.843 5.032 1.936 1.657.093 3.298.078 4.953.078 1.657 0 3.3.015 4.954-.078 1.92-.093 3.626-.532 5.03-1.936 1.409-1.408 1.844-3.11 1.937-5.032.096-1.654.078-3.296.078-4.953zm-2.642 7.079a3.802 3.802 0 01-.907 1.375 3.827 3.827 0 01-1.374.906c-1.58.628-5.329.487-7.08.487-1.75 0-5.502.14-7.081-.484a3.802 3.802 0 01-1.375-.907 3.827 3.827 0 01-.907-1.374C2.01 17.5 2.15 13.75 2.15 12s-.141-5.502.483-7.082c.22-.546.484-.955.907-1.374.424-.421.828-.688 1.375-.907 1.58-.625 5.331-.483 7.082-.483 1.75 0 5.502-.142 7.081.483.547.219.955.483 1.375.907.424.422.688.828.907 1.374.624 1.58.483 5.332.483 7.082s.141 5.5-.486 7.079z" fill-rule="nonzero"/></svg>
