<svg viewBox="0 0 24 24" xmlns="http://www.w3.org/2000/svg" fill-rule="evenodd" clip-rule="evenodd" stroke-linejoin="round" stroke-miterlimit="2"><path d="M24 14.522v8.574h-5.113v-8.02c0-2.252-.87-3.379-2.609-3.379-1.287 0-2.174.606-2.66 1.816-.105.236-.157.64-.157 1.21v8.373H8.295c.036-9.045.036-14.038 0-14.98h5.166v2.12l-.052.049h.052v-.05c1.113-1.648 2.661-2.472 4.644-2.472 1.773 0 3.2.572 4.278 1.715C23.46 10.622 24 12.303 24 14.522zM2.922.904c-.87 0-1.575.244-2.114.731C.27 2.123 0 2.737 0 3.477s.26 1.362.783 1.866c.522.504 1.2.756 2.034.756h.053c.869 0 1.573-.252 2.113-.756.539-.504.809-1.127.809-1.866-.035-.74-.314-1.354-.835-1.842-.522-.487-1.2-.73-2.035-.73zM.261 23.096h5.165V8.116H.26v14.98z" fill-rule="nonzero"/></svg>
