<svg viewBox="0 0 24 24" xmlns="http://www.w3.org/2000/svg" fill-rule="evenodd" clip-rule="evenodd" stroke-linejoin="round" stroke-miterlimit="2"><path d="M24 4.567a9.888 9.888 0 01-2.833.762 4.904 4.904 0 002.164-2.712 9.697 9.697 0 01-3.12 1.189 4.915 4.915 0 00-3.595-1.554 4.916 4.916 0 00-4.917 4.92c0 .38.046.761.12 1.128A13.98 13.98 0 011.68 3.152a4.881 4.881 0 00-.67 2.482c0 1.708.868 3.213 2.193 4.1a4.965 4.965 0 01-2.225-.627v.06a4.92 4.92 0 003.943 4.83c-.422.11-.857.165-1.295.166-.32 0-.623-.032-.928-.074A4.926 4.926 0 007.294 17.5a9.854 9.854 0 01-6.106 2.103c-.412 0-.793-.014-1.188-.06a13.924 13.924 0 007.554 2.206c9.045 0 13.995-7.493 13.995-13.997 0-.214 0-.428-.015-.641.958-.7 1.797-1.569 2.466-2.544z" fill-rule="nonzero"/></svg>
