<?xml version="1.0" standalone="no"?>
<!DOCTYPE svg PUBLIC "-//W3C//DTD SVG 20010904//EN"
 "http://www.w3.org/TR/2001/REC-SVG-20010904/DTD/svg10.dtd">
<svg version="1.0" xmlns="http://www.w3.org/2000/svg"
 width="700.000000pt" height="700.000000pt" viewBox="0 0 700.000000 700.000000"
 preserveAspectRatio="xMidYMid meet">
<metadata>
Created by potrace 1.11, written by Peter Selinger 2001-2013
</metadata>
<g transform="translate(0.000000,700.000000) scale(0.100000,-0.100000)"
fill="#000000" stroke="none">
<path d="M4758 5943 c-190 -146 -418 -713 -513 -1273 -3 -19 -10 -53 -15 -75
-5 -22 -11 -64 -15 -94 -4 -30 -9 -63 -11 -75 -2 -12 -6 -41 -9 -66 -3 -25 -7
-58 -9 -75 -7 -51 -18 -156 -21 -199 -21 -246 -21 -238 -29 -521 -3 -121 -9
-245 -11 -276 -16 -175 -185 -482 -414 -749 -146 -170 -509 -509 -531 -495 -4
3 -11 30 -15 61 -6 54 -9 72 -20 139 -2 17 -7 53 -10 80 -3 28 -10 75 -15 105
-5 30 -12 78 -15 105 -6 46 -17 128 -29 215 -15 101 -33 257 -41 357 -3 32 -7
74 -10 93 -2 19 -7 73 -10 120 -3 47 -8 103 -10 125 -2 22 -6 76 -10 120 -11
160 -16 221 -20 255 -2 19 -7 80 -10 135 -4 55 -8 111 -10 125 -2 14 -6 63
-10 110 -7 97 -14 181 -21 260 -2 30 -7 89 -10 130 -10 142 -13 195 -19 270
-4 41 -8 98 -10 125 -13 172 -17 218 -26 285 -25 200 -56 319 -97 383 -14 20
-32 37 -42 37 -51 0 -99 -119 -135 -335 -34 -209 -37 -250 -19 -266 11 -9 20
-10 32 -2 30 19 51 67 82 193 48 196 47 196 64 20 4 -36 9 -85 12 -110 2 -25
6 -72 9 -105 3 -33 7 -85 10 -115 10 -118 15 -178 20 -250 3 -41 7 -100 10
-130 3 -30 7 -98 10 -150 3 -52 7 -130 10 -172 6 -82 10 -156 20 -333 3 -60 7
-137 10 -170 2 -33 7 -105 10 -160 3 -55 8 -127 10 -160 2 -33 7 -100 10 -150
7 -103 13 -194 20 -280 3 -33 7 -87 10 -120 3 -33 7 -85 10 -115 3 -30 8 -77
10 -105 9 -94 16 -170 21 -210 2 -22 7 -62 10 -90 3 -27 14 -113 24 -190 10
-77 17 -141 15 -143 -1 -2 -74 32 -161 76 -167 82 -262 119 -459 175 -185 53
-481 118 -645 142 -25 3 -58 8 -75 11 -65 11 -82 13 -145 19 -36 4 -74 9 -85
12 -51 12 -525 10 -619 -2 -266 -37 -436 -111 -587 -256 -144 -139 -211 -281
-226 -479 -18 -248 97 -432 352 -558 73 -36 237 -95 296 -106 13 -2 40 -7 59
-11 19 -3 49 -9 65 -11 57 -10 400 -12 465 -3 36 5 81 11 100 13 401 54 887
246 1520 601 141 79 189 105 194 105 4 0 20 -67 32 -136 2 -16 9 -56 15 -89 6
-33 12 -70 14 -83 19 -115 87 -159 138 -89 53 70 55 129 12 297 -30 118 -36
201 -17 245 7 17 40 50 74 75 201 146 352 293 499 481 95 121 161 224 239 374
35 66 66 124 71 129 4 4 10 -23 14 -60 6 -67 8 -87 20 -184 3 -25 7 -65 9 -90
3 -25 7 -58 10 -75 2 -16 7 -52 11 -79 3 -27 8 -52 10 -55 1 -3 6 -22 9 -41
12 -74 18 -98 47 -199 135 -465 420 -758 753 -774 126 -7 228 26 365 118 110
72 272 232 346 340 53 77 88 96 137 77 9 -4 111 -99 225 -212 115 -113 264
-254 331 -314 239 -211 457 -356 537 -356 38 0 55 18 33 34 -12 9 -157 141
-232 211 -12 11 -46 42 -76 70 -309 279 -708 671 -729 715 -32 66 -42 47 273
518 110 163 201 306 204 318 4 24 -41 66 -62 58 -16 -6 -81 -93 -489 -651
-333 -455 -447 -589 -568 -665 -198 -127 -384 -104 -554 66 -207 207 -355 597
-403 1061 -14 142 -7 553 13 655 2 14 6 41 9 60 9 75 38 174 101 351 101 283
220 643 279 844 140 481 190 738 190 975 0 140 -2 160 -23 203 -23 50 -69 87
-107 87 -11 0 -37 -12 -56 -27z m57 -348 c-2 -99 -5 -189 -8 -200 -3 -11 -8
-47 -12 -80 -3 -33 -13 -89 -20 -125 -8 -37 -16 -77 -19 -90 -25 -137 -83
-329 -237 -795 -108 -326 -164 -475 -180 -475 -4 0 -6 19 -4 43 2 23 7 96 10
161 8 154 18 267 40 431 2 17 7 53 10 80 6 48 49 297 59 341 2 11 16 70 31
130 14 60 28 116 30 124 9 41 92 286 126 372 54 135 127 291 142 300 28 17 36
-34 32 -217z m-3320 -3319 c22 -2 70 -7 107 -11 37 -3 77 -8 90 -10 13 -2 43
-6 68 -9 96 -13 236 -40 355 -71 55 -14 109 -27 121 -30 43 -10 242 -78 335
-115 118 -48 359 -161 359 -169 0 -4 -17 -15 -37 -26 -21 -11 -58 -32 -83 -46
-132 -79 -503 -267 -675 -341 -349 -153 -704 -239 -974 -238 -192 0 -311 14
-478 56 -392 97 -552 295 -463 573 74 227 264 375 550 426 19 4 53 10 75 14
42 9 581 6 650 -3z"/>
</g>
</svg>
