<?xml version="1.0" standalone="no"?>
<!DOCTYPE svg PUBLIC "-//W3C//DTD SVG 20010904//EN"
 "http://www.w3.org/TR/2001/REC-SVG-20010904/DTD/svg10.dtd">
<svg version="1.0" xmlns="http://www.w3.org/2000/svg"
 width="700.000000pt" height="700.000000pt" viewBox="0 0 700.000000 700.000000"
 preserveAspectRatio="xMidYMid meet">
<metadata>
Created by potrace 1.14, written by Peter Selinger 2001-2017
</metadata>
<g transform="translate(0.000000,700.000000) scale(0.100000,-0.100000)"
fill="#000000" stroke="none">
<path d="M3578 6973 c-7 -16 -13 -29 -14 -31 -5 -10 -34 14 -34 29 0 27 -58
25 -96 -3 -44 -32 -105 -106 -149 -178 -30 -49 -38 -74 -41 -122 -5 -72 -9
-81 -68 -140 -55 -54 -59 -83 -17 -130 16 -18 30 -42 32 -52 2 -11 24 -34 49
-51 29 -21 44 -39 43 -51 -1 -11 -5 -50 -10 -89 -4 -38 -8 -99 -8 -134 0 -57
3 -66 26 -83 14 -11 44 -22 67 -25 23 -3 42 -7 42 -9 0 -2 -36 -39 -80 -81
-55 -53 -119 -100 -203 -150 -136 -80 -167 -103 -214 -150 -35 -36 -37 -61 -9
-127 13 -32 13 -42 -4 -103 -10 -38 -21 -81 -23 -98 -3 -16 -15 -86 -27 -155
-12 -69 -24 -138 -27 -155 -5 -33 -41 -155 -121 -418 -57 -187 -83 -308 -111
-532 -17 -129 -22 -152 -42 -168 -13 -10 -29 -44 -40 -83 -10 -37 -31 -82 -46
-102 -22 -29 -27 -46 -28 -99 -1 -91 -13 -99 -95 -69 -284 104 -352 127 -367
124 -11 -2 -19 -14 -21 -29 -3 -30 -17 -23 193 -99 254 -93 226 -77 223 -127
-2 -39 2 -47 33 -74 66 -57 84 -62 221 -64 111 -1 130 -4 149 -21 51 -46 55
-90 34 -324 -2 -19 -6 -73 -10 -120 -3 -47 -8 -96 -10 -110 -2 -14 -6 -54 -10
-90 -3 -36 -8 -85 -10 -110 -3 -25 -7 -70 -11 -100 -3 -30 -7 -72 -9 -93 -2
-20 -7 -61 -9 -90 -3 -28 -8 -74 -11 -102 -3 -27 -7 -72 -10 -100 -3 -27 -7
-72 -10 -100 -3 -27 -8 -79 -12 -115 -4 -36 -7 -95 -7 -132 -1 -59 2 -70 29
-105 36 -44 118 -89 190 -102 33 -6 56 -17 70 -34 11 -14 54 -39 95 -57 101
-44 104 -47 80 -77 -11 -14 -20 -31 -20 -38 0 -7 -7 -18 -15 -25 -8 -7 -15
-21 -15 -31 0 -37 -28 -40 -435 -54 -187 -7 -278 -13 -299 -21 -25 -10 -29
-40 -31 -211 0 -104 -5 -167 -12 -174 -11 -11 -26 -12 -303 -24 -108 -5 -162
-11 -177 -21 -23 -14 -23 -17 -23 -230 0 -163 -3 -215 -12 -218 -73 -19 -73
-19 -76 -69 l-2 -47 1775 0 c976 0 1775 2 1775 6 0 7 -192 265 -196 262 -1 -2
1 -23 6 -47 10 -57 4 -71 -30 -71 -24 0 -29 5 -35 36 -6 33 -7 35 -20 18 -7
-11 -16 -17 -19 -14 -5 5 -14 52 -15 81 -1 9 -11 19 -23 23 -13 3 -44 22 -69
43 -26 21 -54 43 -64 48 -14 8 -18 30 -22 110 -6 131 -10 197 -12 212 0 7 -19
17 -41 23 -42 11 -58 30 -58 70 0 14 -5 45 -12 70 -13 47 -17 66 -25 115 -3
17 -8 37 -10 45 -2 8 -7 40 -10 70 -3 30 -8 67 -11 82 -3 21 1 28 18 34 51 15
156 94 173 130 17 36 17 58 0 224 -2 19 -6 80 -9 135 -3 55 -8 132 -11 170 -3
39 -7 108 -10 155 -12 180 -25 361 -39 530 -2 25 -7 90 -11 145 -4 55 -9 108
-11 117 -1 10 -6 61 -9 115 -4 53 -8 105 -10 114 -2 10 -7 62 -10 116 -4 54
-9 105 -10 114 -2 9 -6 58 -10 110 -4 52 -9 110 -10 129 -27 312 -26 324 25
432 24 51 55 107 70 123 64 70 166 248 184 321 7 26 32 67 66 106 8 10 44 35
79 55 79 46 184 142 201 183 9 22 10 43 4 73 -9 39 -12 42 -39 40 -17 -1 -36
-11 -44 -23 -16 -24 -64 -28 -55 -5 4 8 15 15 25 15 23 0 26 35 4 44 -23 8
-18 23 10 30 55 14 13 66 -65 81 -63 11 -75 13 -82 14 -5 1 -8 7 -8 14 0 20
-29 43 -73 57 -35 11 -38 14 -37 48 3 93 -11 152 -57 234 -25 46 -55 95 -65
111 -11 15 -16 27 -12 27 4 0 0 8 -9 18 -8 9 -38 61 -66 115 -36 68 -51 109
-51 136 0 109 -27 132 -164 138 -63 3 -114 0 -166 -12 -137 -31 -181 -24 -242
37 -43 43 -47 62 -18 78 11 6 20 19 20 30 0 22 -24 91 -46 132 -24 45 -18 64
30 92 25 15 48 31 51 36 10 16 -5 50 -21 50 -8 0 -34 19 -58 43 -47 48 -66
100 -66 189 0 97 -37 197 -100 270 -27 31 -35 36 -51 27 -24 -13 -39 -4 -32
19 5 21 -53 86 -68 76 -6 -3 -8 -12 -5 -20 8 -20 -2 -17 -63 16 -30 17 -56 30
-58 30 -2 0 -9 -12 -15 -27z m577 -1470 c17 -25 17 -27 -1 -40 -25 -19 -40
-11 -36 21 1 14 -2 26 -8 26 -6 0 -8 5 -5 10 11 18 32 11 50 -17z m379 -452
c6 -56 -10 -40 -19 19 -5 31 -4 42 3 35 6 -5 13 -30 16 -54z m473 -256 c-3
-25 1 -41 14 -56 11 -12 19 -29 19 -37 0 -9 -12 1 -27 21 -22 27 -33 34 -50
30 -23 -5 -28 3 -23 37 2 20 29 40 53 40 16 0 18 -6 14 -35z m187 -76 c-64
-63 -79 -70 -89 -39 -9 29 12 51 40 44 14 -4 28 0 36 11 43 51 63 67 67 55 3
-7 -22 -39 -54 -71z m-138 -94 c-11 -8 -27 -15 -35 -15 -13 1 -12 4 3 15 11 8
27 15 35 15 13 -1 12 -4 -3 -15z"/>
</g>
</svg>
